<svg xmlns="http://www.w3.org/2000/svg" viewBox="0 0 1248.96 319.81"><defs><style>.cls-1{fill:#00faa4;}</style></defs><g id="Layer_2" data-name="Layer 2"><g id="Layer_1-2" data-name="Layer 1"><path d="M456.6,89.25H398.55c-12.44,0-22.87,4-30.15,11.54-6.89,7.13-10.52,16.86-10.52,28.15v52.71c0,11.19,3.49,21.31,9.82,28.49,7,8,17.19,12.19,29.37,12.19h29.7a24.2,24.2,0,0,0,12.54-3.7V243a10.06,10.06,0,0,1-10,10.07H372.5a6.68,6.68,0,0,0-6.68,6.68v23h63.47A40.67,40.67,0,0,0,470,242V102.61A13.37,13.37,0,0,0,456.6,89.25Zm-17.35,29.62v65.55a9.57,9.57,0,0,1-7.93,8.23H397.56c-4.68,0-9-1.21-9-10v-53.7c0-7.25,2.79-10.07,10-10.07Z"/><path d="M604.83,99.42c-7.2-6.53-17.37-10.12-28.64-10.12H543c-11.25,0-21.41,3.59-28.62,10.11-7.89,7.14-12.06,17.37-12.06,29.58v52.44A40.58,40.58,0,0,0,543,222.11h68.73v-23a6.69,6.69,0,0,0-6.68-6.69h-62a9.94,9.94,0,0,1-10.07-10V168.91a17.13,17.13,0,0,0,5.09.76h67.78c11,0,11-9.21,11-12.24V129C616.87,116.77,612.7,106.54,604.83,99.42ZM586.7,128.66v11.55H533V128.66c0-3.74,1.31-10,10.07-10H577c3.53,0,6.06.74,7.52,2.21S586.72,125,586.7,128.66Z"/><path d="M664.24,89.35a20.52,20.52,0,0,0-20.52,20.52V222.11h24a6.68,6.68,0,0,0,6.68-6.68V118.7h43a10.05,10.05,0,0,1,10.07,10v86.71a6.68,6.68,0,0,0,6.68,6.68h24V129.92a40.91,40.91,0,0,0-33-40.11,26.94,26.94,0,0,0-5.07-.46Z"/><path d="M892.75,99.42c-7.21-6.53-17.38-10.12-28.64-10.12H831c-11.24,0-21.4,3.59-28.61,10.11-7.89,7.14-12.06,17.37-12.06,29.58v52.44A40.58,40.58,0,0,0,831,222.11h68.73v-23a6.69,6.69,0,0,0-6.68-6.69H831a9.93,9.93,0,0,1-10.07-10V168.91a17.12,17.12,0,0,0,5.08.76h67.79c11,0,11-9.21,11-12.24V129C904.78,116.77,900.62,106.54,892.75,99.42Zm-71.87,29.24c0-3.74,1.31-10,10.07-10h33.92c3.54,0,6.07.74,7.53,2.21s2.23,4.12,2.21,7.8v11.55H820.88Z"/><path d="M1032.43,125.27l.06-.08a23.33,23.33,0,0,0,5.52-15V96.28a7.1,7.1,0,0,0-7.3-7H945.33a7.1,7.1,0,0,0-7.3,7v21.87h62.23L937.19,190l-.06.07a23.38,23.38,0,0,0-5.51,15v10.27a6.68,6.68,0,0,0,6.68,6.68h94.78a6.68,6.68,0,0,0,6.68-6.68v-22.5H972.88Z"/><path d="M1095.06,89.25H1071.7V215.43a6.68,6.68,0,0,0,6.68,6.68h24V96.28A7.1,7.1,0,0,0,1095.06,89.25Z"/><path class="cls-1" d="M1095.68,37.1h-24V62.55a6.68,6.68,0,0,0,6.68,6.68h24V43.78A6.68,6.68,0,0,0,1095.68,37.1Z"/><path d="M1208,87.55h-32.66a40.67,40.67,0,0,0-40.68,40.67v54.91a40.58,40.58,0,0,0,40.68,40.68H1208A40.85,40.85,0,0,0,1249,183.13V128.22A40.85,40.85,0,0,0,1208,87.55Zm0,106.86h-32.66a10.07,10.07,0,0,1-10.07-10.29V127.18a10,10,0,0,1,10.06-10l32.67,0a10.29,10.29,0,0,1,10.28,10v56.88A10.29,10.29,0,0,1,1208,194.41Z"/><path d="M90.94,239.72h55.65A13.37,13.37,0,0,0,156,235.8l42.61-42.61a6.68,6.68,0,0,0,0-9.45L179.8,164.9a6.68,6.68,0,0,0-9.45,0l-30.89,30.89A13.32,13.32,0,0,1,130,199.7h-22.5a13.36,13.36,0,0,1-9.45-3.91L43.89,141.62A13.4,13.4,0,0,1,40,132.17v-1.1a13.4,13.4,0,0,1,3.91-9.45l77.7-77.69A13.32,13.32,0,0,1,131,40H219.7a13.36,13.36,0,0,1,9.45,3.91l53.63,53.64a6.68,6.68,0,0,0,11.41-4.73v-35a13.37,13.37,0,0,0-3.92-9.45L245.73,3.91A13.38,13.38,0,0,0,236.28,0H114.45A13.4,13.4,0,0,0,105,3.91L3.91,105A13.4,13.4,0,0,0,0,114.46v34.32a13.37,13.37,0,0,0,3.91,9.45l77.58,77.58A13.37,13.37,0,0,0,90.94,239.72Z"/><path d="M203.25,80.09H147.6A13.4,13.4,0,0,0,138.15,84L95.54,126.62a6.68,6.68,0,0,0,0,9.45l18.85,18.84a6.68,6.68,0,0,0,9.45,0L154.73,124a13.34,13.34,0,0,1,9.45-3.91h22.5a13.36,13.36,0,0,1,9.45,3.91l54.17,54.17a13.4,13.4,0,0,1,3.91,9.45v1.1a13.4,13.4,0,0,1-3.91,9.45l-77.7,77.69a13.32,13.32,0,0,1-9.45,3.91H74.49A13.36,13.36,0,0,1,65,275.88L11.41,222.24A6.68,6.68,0,0,0,0,227v35a13.37,13.37,0,0,0,3.92,9.45L48.46,315.9a13.4,13.4,0,0,0,9.45,3.91H179.74a13.4,13.4,0,0,0,9.45-3.91L290.28,214.8a13.4,13.4,0,0,0,3.91-9.45V171a13.37,13.37,0,0,0-3.91-9.45L212.7,84A13.37,13.37,0,0,0,203.25,80.09Z"/></g></g></svg>